<svg width="50" height="50" viewBox="0 0 50 50" fill="none" xmlns="http://www.w3.org/2000/svg">
<g id="foundation:social-stumbleupon" clip-path="url(#clip0_2212_10)">
<g id="Group">
<path id="Vector" fill-rule="evenodd" clip-rule="evenodd" d="M44.7442 9.66919C48.1584 14.0494 50.0085 19.4463 49.9999 24.9999C49.9999 38.8051 38.8051 49.9999 25.0006 49.9999C15.2871 49.9999 6.866 44.4576 2.72754 36.3647H13.6237C18.816 36.3647 22.4429 33.566 22.4429 29.0923C22.4429 19.6108 11.5051 23.4737 11.5051 20.1089C11.5051 18.4878 12.8057 17.898 15.1859 17.898H22.7692C24.8711 17.898 27.3435 18.275 27.3435 20.5685V28.1243C27.3435 33.5955 31.616 36.364 36.0442 36.364C40.548 36.364 44.7435 33.5955 44.7435 28.1243V9.66919H44.7442Z" fill="white"/>
<path id="Vector_2" fill-rule="evenodd" clip-rule="evenodd" d="M25.0005 2.43241e-05C30.0173 -0.00698868 34.919 1.50262 39.0627 4.33079V28.3013C39.0627 29.9628 37.7037 31.3224 36.0447 31.3224C34.3838 31.3224 33.0261 29.9628 33.0261 28.3013V21.1186C33.0261 15.3846 30.1242 12.9994 26.3447 12.9994H14.0441C9.59091 12.9994 5.89668 15.834 5.89668 20.3289C5.89668 22.6289 6.88193 25.9994 11.5415 26.8353C15.3371 27.5186 16.8351 27.3199 16.8351 29.3506C16.8351 31.3224 14.6262 31.3224 11.7101 31.3224H0.80822C0.269706 29.2582 -0.00195208 27.1334 -0.000112793 25C-0.000112793 11.1981 11.196 2.43241e-05 25.0005 2.43241e-05Z" fill="white"/>
</g>
</g>
<defs>
<clipPath id="clip0_2212_10">
<rect width="50" height="50" fill="white"/>
</clipPath>
</defs>
</svg>
